 http://www.imdb.com/title/tt1129427/

Format : AVI
Format/Info : Audio Video Interleave
File size : 702 MiB
Duration : 1h 31mn
Overall bit rate : 1 069 Kbps
Writing library : VirtualDub build 32842/release

Video
ID : 0
Format : MPEG-4 Visual
Format profile : Advanced Simple@L5
Format settings, BVOP : 4
Format settings, QPel : No
Format settings, GMC : No warppoints
Format settings, Matrix : Default (H.263)
Muxing mode : Packed bitstream
Codec ID : XVID
Codec ID/Hint : XviD
Duration : 1h 31mn
Bit rate : 931 Kbps
Width : 640 pixels
Height : 272 pixels
Display aspect ratio : 2.35:1
Frame rate : 25.000 fps
Color space : YUV
Chroma subsampling : 4:2:0
Bit depth : 8 bits
Scan type : Progressive
Compression mode : Lossy
Bits/(Pixel*Frame) : 0.214
Stream size : 612 MiB (87%)
Writing library : XviD 64

Audio
ID : 1
Format : MPEG Audio
Format version : Version 1
Format profile : Layer 3
Codec ID : 55
Codec ID/Hint : MP3
Duration : 1h 31mn
Bit rate mode : Constant
Bit rate : 128 Kbps
Channel(s) : 2 channels
Sampling rate : 44.1 KHz
Compression mode : Lossy
Stream size : 84.1 MiB (12%)
Alignment : Split accross interleaves
Interleave, duration : 40 ms (1.00 video frame)
Interleave, preload duration : 500 ms
Writing library : LAME3.99r
Encoding settings : -m s -V 4 -q 3 -lowpass 17 -b 128


Plot
A mild-mannered secretary discovers that she has a talent for murder as she ascends the corporate ladder.

 
http://img268.imageshack.us/img268/5783/daleg.png 
http://img855.imageshack.us/img855/3152/dale1j.png 
http://img189.imageshack.us/img189/2118/dale2.png 
http://img825.imageshack.us/img825/8348/dale3.png